# xmcd
#
# Track frame offsets: 
#        150
#        14495
#        29330
#        47722
#        62350
#        76572
#        92032
#        105662
#        120342
#        134167
#        148625
#        162715
#        176210
#        189542
#        204327
#        217972
#        234110
#        249287
#        264212
#
# Disc length: 3702 seconds
#
# Revision: 0
# Processed by: cddbd v1.5.2PL0 Copyright (c) Steve Scherf et al.
# Submitted via: ExactAudioCopyFreeDBPlugin 1.0
#
DISCID=fb0e7413
DTITLE=Louis Armstrong - C'est Si Bon [CD 2,2)
DYEAR=1990
DGENRE=Blues
TTITLE0=Only You
TTITLE1=The Gipsy
TTITLE2=Ain't Misbehavin'
TTITLE3=I've Got a Feeling I'm Falling
TTITLE4=Twelth Street Rag
TTITLE5=Saveay Blues
TTITLE6=Alligator Crawl
TTITLE7=Wild Man Blues
TTITLE8=Melancholy Blues
TTITLE9=Willie the Weeper
TTITLE10=Ory's Creole Tombone
TTITLE11=Struttin'With Some Barbecue
TTITLE12=Hotter Than That
TTITLE13=West End Blues
TTITLE14=Potato Head Blues
TTITLE15=Keyhole Blues
TTITLE16=Gully Low Blues
TTITLE17=Raising Street Blues
TTITLE18=S.O.L. Blues
EXTD=
EXTT0=
EXTT1=
EXTT2=
EXTT3=
EXTT4=
EXTT5=
EXTT6=
EXTT7=
EXTT8=
EXTT9=
EXTT10=
EXTT11=
EXTT12=
EXTT13=
EXTT14=
EXTT15=
EXTT16=
EXTT17=
EXTT18=
PLAYORDER=
